<?xml version="1.0" encoding="UTF-8"?><svg id="Ebene_1" xmlns="http://www.w3.org/2000/svg" width="48.49" height="25.892" viewBox="0 0 48.49 25.892"><defs><style>.cls-1{fill:currentColor;stroke-width:0px;}.cls-2{fill:none;stroke:currentColor;stroke-miterlimit:10;stroke-width:.75px;}</style></defs><g id="Icon-Product-Stream"><path id="Path_852" class="cls-1" d="M1.059,18.888h18.372c.585,0,1.059.474,1.059,1.059s-.474,1.059-1.059,1.059H1.059c-.585,0-1.059-.474-1.059-1.059,0-.585.474-1.059,1.059-1.059Z"/><path id="Path_851" class="cls-1" d="M29.059,18.888h18.372c.585,0,1.059.474,1.059,1.059s-.474,1.059-1.059,1.059h-18.372c-.585,0-1.059-.474-1.059-1.059,0-.585.474-1.059,1.059-1.059Z"/><path id="Path_850" class="cls-1" d="M1.059,23.774h14.171c.585,0,1.059.474,1.059,1.059,0,.585-.474,1.059-1.059,1.059H1.059c-.585,0-1.059-.474-1.059-1.059,0-.585.474-1.059,1.059-1.059Z"/><path id="Path_849" class="cls-1" d="M29.059,23.774h14.171c.585,0,1.059.474,1.059,1.059,0,.585-.474,1.059-1.059,1.059h-14.171c-.585,0-1.059-.474-1.059-1.059,0-.585.474-1.059,1.059-1.059Z"/></g><path class="cls-2" d="M7.142,7.175c0-1.818,1.474-3.292,3.292-3.292,0-1.818-1.474-3.292-3.292-3.292s-3.292,1.474-3.292,3.292c1.818,0,3.292,1.474,3.292,3.292Z"/><path class="cls-2" d="M7.142,7.175c0,1.818-1.474,3.292-3.292,3.292,0,1.818,1.474,3.292,3.292,3.292s3.292-1.474,3.292-3.292c-1.818,0-3.292-1.474-3.292-3.292Z"/><path class="cls-2" d="M10.433,3.883c0,1.818-1.474,3.292-3.292,3.292,1.818,0,3.292,1.474,3.292,3.292,1.818,0,3.292-1.474,3.292-3.292s-1.474-3.292-3.292-3.292Z"/><path class="cls-2" d="M7.142,7.175c1.818,0,3.292-1.474,3.292-3.292-1.818,0-3.292,1.474-3.292,3.292Z"/><path class="cls-2" d="M7.142,7.175c0,1.818,1.474,3.292,3.292,3.292,0-1.818-1.474-3.292-3.292-3.292Z"/><path class="cls-2" d="M7.142,7.175c-1.818,0-3.292-1.474-3.292-3.292-1.818,0-3.292,1.474-3.292,3.292s1.474,3.292,3.292,3.292c0-1.818,1.474-3.292,3.292-3.292Z"/><path class="cls-2" d="M7.142,7.175c0-1.818-1.474-3.292-3.292-3.292,0,1.818,1.474,3.292,3.292,3.292Z"/><path class="cls-2" d="M7.142,7.175c-1.818,0-3.292,1.474-3.292,3.292,1.818,0,3.292-1.474,3.292-3.292Z"/><path class="cls-2" d="M36.048,8.523c-1.008,0-1.824-.817-1.824-1.825s-.817-1.824-1.825-1.824-1.824-.816-1.824-1.824.817-1.825,1.824-1.825,1.825.816,1.825,1.825.816,1.824,1.824,1.824,1.824-.816,1.824-1.824.816-1.825,1.824-1.825,1.824.816,1.824,1.825-.816,1.824-1.824,1.824-1.824.816-1.824,1.824-.817,1.825-1.824,1.825Z"/><path class="cls-2" d="M33.782,13.481c-1.008,0-1.824-.817-1.824-1.824s-.817-1.824-1.824-1.824-1.824-.817-1.824-1.825.817-1.824,1.824-1.824,1.824.816,1.824,1.824.817,1.825,1.824,1.825,1.825.816,1.825,1.824-.817,1.824-1.825,1.824Z"/><path class="cls-2" d="M37.095,11.565c0-1.058.857-1.915,1.915-1.915s1.915-.857,1.915-1.915.857-1.916,1.916-1.916,1.915.858,1.915,1.916-.857,1.915-1.915,1.915-1.916.857-1.916,1.915-.857,1.916-1.915,1.916-1.915-.858-1.915-1.916Z"/></svg>